<?xml version="1.0" standalone="no"?>
<!DOCTYPE svg PUBLIC "-//W3C//DTD SVG 1.1//EN" "http://www.w3.org/Graphics/SVG/1.1/DTD/svg11.dtd" >
<svg xmlns="http://www.w3.org/2000/svg">
<metadata></metadata>
<defs>
<font id="sfrlight" horiz-adv-x="1196" >
<font-face units-per-em="2048" ascent="1536" descent="-512" />
<missing-glyph horiz-adv-x="598" />
<glyph unicode="&#xfb01;" horiz-adv-x="1099" d="M45 961v112h143v137q0 152 93.5 219.5t273.5 67.5q165 0 299 -39l-27 -117q-132 37 -254 37q-134 0 -190.5 -40t-56.5 -140v-125h604v-1073h-137v961h-467v-961h-138v961h-143z" />
<glyph unicode="&#xfb02;" horiz-adv-x="1161" d="M45 961v112h143v137q0 287 340 287q138 0 275 -39l106 21v-1235q0 -148 154 -148q9 0 63 6l7 -116q-53 -11 -93 -11q-266 0 -266 258v1108q-119 37 -223 37q-126 0 -175.5 -39.5t-49.5 -140.5v-125h317v-112h-317v-961h-138v961h-143z" />
<glyph unicode="&#xfb03;" horiz-adv-x="1744" d="M45 961v112h143v137q0 287 320 287q84 0 184 -27l-20 -116q-74 24 -142 24q-109 0 -156.5 -40t-47.5 -140v-125h518v137q0 152 93 219.5t273 67.5q165 0 299 -39l-26 -117q-132 37 -254 37q-134 0 -192 -40t-58 -140v-125h606v-1073h-137v961h-469v-961h-135v961h-518 v-961h-138v961h-143z" />
<glyph unicode="&#xfb04;" horiz-adv-x="1820" d="M45 961v112h143v137q0 287 320 287q84 0 184 -27l-20 -116q-74 24 -142 24q-109 0 -156.5 -40t-47.5 -140v-125h518v137q0 287 340 287q141 0 278 -39l107 21v-1235q0 -148 153 -148q10 0 64 6l6 -116q-53 -11 -92 -11q-266 0 -266 258v1108q-119 37 -224 37 q-127 0 -179 -40t-52 -140v-125h324v-112h-324v-961h-135v961h-518v-961h-138v961h-143z" />
<glyph horiz-adv-x="0" />
<glyph horiz-adv-x="0" />
<glyph horiz-adv-x="682" />
<glyph unicode="&#xd;" horiz-adv-x="548" />
<glyph unicode=" "  horiz-adv-x="598" />
<glyph unicode="&#x09;" horiz-adv-x="598" />
<glyph unicode="&#xa0;" horiz-adv-x="598" />
<glyph unicode="!" horiz-adv-x="589" d="M188 96q0 43 29.5 74t77.5 31t77 -31t29 -74q0 -44 -28.5 -75t-77.5 -31t-78 31t-29 75zM217 993v496h158v-496l-29 -600h-102z" />
<glyph unicode="&#x22;" horiz-adv-x="782" d="M162 1458h145l-22 -473h-99zM475 1458h146l-23 -473h-98z" />
<glyph unicode="#" horiz-adv-x="1110" d="M-12 422l12 102h238l98 359h-221l12 104h235l117 426h119l-119 -426h297l117 426h119l-119 -426h225l-12 -104h-238l-100 -359h221l-12 -102h-236l-114 -422h-119l115 422h-295l-115 -422h-119l115 422h-221zM354 524h297l99 359h-295z" />
<glyph unicode="$" d="M96 336l137 37q27 -127 104 -195.5t218 -77.5v564l-4 2q-51 14 -86.5 25.5t-82 30.5t-78.5 39t-66 50t-54.5 65t-33.5 82.5t-13 102.5q0 153 117 256.5t301 112.5v221h111v-226q150 -15 253 -90t140 -192l-135 -47q-68 173 -258 204v-516h4q73 -20 124 -38t110.5 -51 t95.5 -72t60.5 -100.5t24.5 -137.5q0 -164 -114 -274.5t-305 -130.5v-218h-111v215q-194 7 -310.5 99t-148.5 260zM281 1073q0 -46 14 -82.5t37 -62.5t60 -47.5t74 -36t89 -29.5v490q-130 -7 -202 -73.5t-72 -158.5zM666 102q40 6 77 18t74.5 34t65 51t44.5 72.5t17 95.5 q0 56 -20.5 99.5t-61.5 73.5t-86.5 49.5t-109.5 37.5v-531z" />
<glyph unicode="%" horiz-adv-x="1796" d="M113 987q0 218 86 333.5t243 115.5q156 0 243 -116t87 -333q0 -215 -87.5 -332.5t-242.5 -117.5q-156 0 -242.5 117t-86.5 333zM229 987q0 -166 53.5 -261t159.5 -95q105 0 159 95t54 261t-54 259t-159 93q-106 0 -159.5 -92.5t-53.5 -259.5zM455 -39l784 1505h104 l-782 -1505h-106zM1024 428q0 217 87.5 333t244.5 116q155 0 242.5 -116t87.5 -333q0 -215 -88 -333t-242 -118q-156 0 -244 118t-88 333zM1143 428q0 -166 53.5 -261t159.5 -95q104 0 157.5 95t53.5 261q0 167 -53 259.5t-158 92.5q-106 0 -159.5 -92.5t-53.5 -259.5z" />
<glyph unicode="&#x26;" horiz-adv-x="1378" d="M94 352q0 133 69.5 237t235.5 173q-88 96 -127 172.5t-39 173.5q0 61 23.5 118.5t69.5 105.5t123.5 77t175.5 29q162 0 270.5 -88t108.5 -228q0 -262 -392 -395l392 -403q124 175 149 436l127 -31q-29 -294 -190 -496l225 -233h-182l-134 137q-183 -162 -436 -162 q-203 0 -336 102t-133 275zM238 379q0 -133 97 -209t234 -76q202 0 346 131l-440 457q-237 -100 -237 -303zM375 1118q0 -82 34 -147t115 -152l13 -12q168 55 245.5 128t77.5 173q0 101 -69.5 158t-178.5 57q-66 0 -115 -21t-74 -54t-36.5 -65.5t-11.5 -64.5z" />
<glyph unicode="'" horiz-adv-x="468" d="M162 1458h145l-22 -473h-99z" />
<glyph unicode="(" horiz-adv-x="718" d="M154 559q0 197 53.5 382t130.5 316t176 240h133q-165 -183 -264.5 -424.5t-99.5 -513.5t99.5 -513.5t264.5 -424.5h-133q-99 109 -176 240t-130.5 316t-53.5 382z" />
<glyph unicode=")" horiz-adv-x="718" d="M61 -379q166 184 266.5 425t100.5 513t-100.5 513t-266.5 425h136q99 -109 176 -240t130.5 -316t53.5 -382t-53.5 -382t-130.5 -316t-176 -240h-136z" />
<glyph unicode="*" horiz-adv-x="888" d="M51 1167l31 101l309 -99l-2 328h111v-328l305 95l31 -99l-310 -94l201 -272l-84 -64l-199 271l-202 -271l-84 64l202 272z" />
<glyph unicode="+" horiz-adv-x="1263" d="M61 639v127h510v514h121v-514h510v-127h-510v-514h-121v514h-510z" />
<glyph unicode="," horiz-adv-x="598" d="M139 -262l111 477h158l-160 -477h-109z" />
<glyph unicode="-" horiz-adv-x="598" d="M70 494v143h456v-143h-456z" />
<glyph unicode="." horiz-adv-x="598" d="M193 96q0 43 29 74t77 31t76 -31t28 -74q0 -44 -27.5 -75t-76.5 -31t-77.5 31t-28.5 75z" />
<glyph unicode="/" horiz-adv-x="770" d="M0 -125l643 1622h127l-645 -1622h-125z" />
<glyph unicode="0" d="M76 709q0 350 137.5 539.5t384.5 189.5t385.5 -189.5t138.5 -539.5q0 -348 -139 -541t-385 -193t-384 192.5t-138 541.5zM223 709q0 -283 95.5 -447t279.5 -164t280.5 164t96.5 447q0 284 -96 445t-281 161t-280 -161t-95 -445z" />
<glyph unicode="1" d="M248 1235l391 178h133v-1413h-141v1264l-334 -152z" />
<glyph unicode="2" d="M117 0v115l303 250q101 83 166.5 140t125 115.5t93 102.5t58.5 93t34.5 95.5t9.5 102.5q0 59 -18.5 110.5t-56 95t-102 68.5t-148.5 25q-123 0 -203.5 -63.5t-102.5 -176.5l-131 31q13 87 57 153t108.5 104.5t139 57.5t156.5 19q196 0 323.5 -117.5t127.5 -292.5 q0 -55 -7 -102.5t-25 -94t-38.5 -85.5t-59 -85.5t-75 -85t-97.5 -92.5t-115.5 -99t-139.5 -114l-172 -139h755v-131h-966z" />
<glyph unicode="3" d="M100 293l131 39q20 -103 104 -167.5t228 -64.5q166 0 261.5 78.5t95.5 214.5q0 138 -110 209.5t-304 71.5h-133v121h127q383 0 383 272q0 119 -88.5 182.5t-216.5 63.5q-130 0 -215 -54.5t-109 -166.5l-127 26q14 87 61 152t114 100t137.5 51.5t144.5 16.5 q90 0 169.5 -22.5t142 -65.5t98.5 -112.5t36 -158.5q0 -129 -70.5 -218t-205.5 -122q64 -15 117 -41t99 -66.5t71.5 -103t25.5 -139.5q0 -185 -138 -299.5t-364 -114.5q-80 0 -153 17t-140 52.5t-113 99t-59 149.5z" />
<glyph unicode="4" d="M82 346v125l641 942h195v-940h223v-127h-223v-346h-144v346h-692zM223 473h551v803z" />
<glyph unicode="5" d="M90 293l131 39q19 -102 102.5 -167t229.5 -65q172 0 274.5 90.5t102.5 253.5q0 166 -106 246t-283 80q-170 0 -365 -65v708h803v-125h-674v-426q126 35 273 35q236 0 368.5 -116t132.5 -330q0 -97 -33.5 -182t-97 -151t-166 -104.5t-231.5 -38.5q-74 0 -146 17t-139.5 52 t-115 99.5t-60.5 149.5z" />
<glyph unicode="6" d="M111 682q0 164 34 299t102.5 238.5t182.5 161t264 57.5q204 0 357 -86l-21 -138q-69 46 -157.5 71.5t-174.5 25.5q-219 0 -323 -145.5t-115 -440.5q94 83 204.5 120.5t201.5 37.5q219 0 327.5 -117t108.5 -315q0 -134 -55.5 -240.5t-167 -171t-261.5 -64.5 q-87 0 -159.5 24t-124 64.5t-91.5 97.5t-64.5 118.5t-40 133.5t-21.5 136.5t-6 132.5zM258 590q4 -73 18.5 -140t43 -132t69.5 -112.5t102.5 -76.5t137.5 -29q82 0 146 28t103.5 76t59.5 108t20 128q0 153 -80.5 234.5t-240.5 81.5q-201 0 -379 -166z" />
<glyph unicode="7" d="M176 1280v133h954v-127l-755 -1286h-168l764 1280h-795z" />
<glyph unicode="8" d="M100 334q0 273 351 403q-145 56 -222 139t-77 209q0 151 120.5 252t329.5 101q184 0 309 -92t125 -248q0 -106 -66.5 -202t-221.5 -157q181 -67 260 -155.5t79 -223.5q0 -164 -129 -274.5t-360 -110.5q-134 0 -245 39.5t-182 122.5t-71 197zM250 356q0 -66 30 -117.5 t80.5 -82t111 -45.5t126.5 -15q172 0 256 78t84 193q0 44 -14.5 81.5t-51.5 79t-111.5 80.5t-182.5 72q-328 -108 -328 -324zM295 1085q0 -100 75 -170t255 -127q143 57 204.5 126t61.5 163q0 118 -83 181t-210 63q-147 0 -225 -69t-78 -167z" />
<glyph unicode="9" d="M92 963q0 205 129 340t352 135q121 0 213.5 -46t147 -117t89 -168.5t46.5 -187.5t12 -188q0 -164 -34 -299t-102.5 -238.5t-181.5 -161t-263 -57.5q-207 0 -357 86l21 138q68 -46 156.5 -71.5t175.5 -25.5q218 0 322.5 145t115.5 439q-93 -81 -204.5 -118.5t-201.5 -37.5 q-219 0 -327.5 117.5t-108.5 315.5zM236 973q0 -153 80 -234.5t239 -81.5q206 0 379 166q-4 73 -17.5 140t-42.5 132t-69.5 112.5t-103 76.5t-138.5 29q-81 0 -145 -28t-103 -76t-59 -108t-20 -128z" />
<glyph unicode=":" horiz-adv-x="598" d="M193 96q0 43 29 74t77 31t76 -31t28 -74q0 -44 -27.5 -75t-76.5 -31t-77.5 31t-28.5 75zM193 909q0 42 29 72.5t77 30.5q47 0 75.5 -30.5t28.5 -72.5q0 -45 -27.5 -75.5t-76.5 -30.5t-77.5 30.5t-28.5 75.5z" />
<glyph unicode=";" horiz-adv-x="598" d="M125 -262l111 477h157l-157 -477h-111zM211 909q0 41 29 72t75 31q48 0 77.5 -30.5t29.5 -72.5q0 -45 -29 -75.5t-78 -30.5q-48 0 -76 30.5t-28 75.5z" />
<glyph unicode="&#x3c;" horiz-adv-x="1077" d="M59 639v127l961 416v-144l-811 -333l811 -338v-144z" />
<glyph unicode="=" horiz-adv-x="1077" d="M59 389v125h961v-125h-961zM59 893v125h961v-125h-961z" />
<glyph unicode="&#x3e;" horiz-adv-x="1077" d="M59 221v146l809 335l-809 334v144l961 -416v-127z" />
<glyph unicode="?" horiz-adv-x="1075" d="M88 1120q22 173 142 275t309 102q179 0 294 -101t115 -274q0 -36 -4.5 -69t-15.5 -64t-20.5 -54.5t-30 -52t-31.5 -44.5t-38 -43l-37.5 -37.5t-41 -38.5t-37.5 -35q-65 -60 -100 -129.5t-35 -165.5h-135q0 130 47 218t129 163q42 39 61.5 57.5t54 57.5t50.5 68.5 t29.5 71.5t13.5 85q0 123 -78.5 191.5t-193.5 68.5q-132 0 -214.5 -73.5t-97.5 -202.5zM389 96q0 43 29.5 74t77.5 31t76 -31t28 -74t-28.5 -74.5t-75.5 -31.5q-49 0 -78 31t-29 75z" />
<glyph unicode="@" horiz-adv-x="1744" d="M113 539q0 214 62 390t170 291.5t253 178.5t313 63q142 0 261.5 -38t203 -104t142.5 -154.5t86.5 -189t27.5 -208.5q0 -153 -39.5 -276.5t-104 -199t-142.5 -115.5t-160 -40q-78 0 -112 35.5t-25 110.5q-136 -146 -310 -146q-127 0 -200.5 91.5t-73.5 238.5 q0 291 140 461t380 170q96 0 177 -19t130 -45l-123 -702q-7 -43 4.5 -62.5t55.5 -19.5q37 0 75.5 15.5t80 54t73 95t52 147t20.5 202.5q0 187 -80 325t-219.5 208.5t-321.5 70.5q-100 0 -194 -27t-184 -90.5t-157 -157.5t-108 -238.5t-41 -322.5q0 -142 36.5 -257.5 t98.5 -192.5t146.5 -129.5t177 -76t193.5 -23.5q120 0 238 34t192 105l53 -76q-186 -160 -502 -160q-156 0 -291 52t-236.5 149t-159.5 247t-58 335zM604 489q0 -119 47.5 -177t132.5 -58q90 0 162 50.5t115 127.5l90 518q-89 35 -180 35q-182 0 -274.5 -134.5t-92.5 -361.5 z" />
<glyph unicode="A" horiz-adv-x="1370" d="M41 0l563 1389h160l565 -1389h-162l-145 358h-680l-145 -358h-156zM387 492h590l-297 720z" />
<glyph unicode="B" horiz-adv-x="1294" d="M182 0v1389h471q69 0 131 -8t129 -31t114.5 -59.5t78.5 -99t31 -144.5q0 -120 -71 -204t-196 -118q314 -56 314 -342q0 -171 -125 -277t-357 -106h-520zM330 129h352q173 0 261.5 71t88.5 197q0 64 -23.5 111.5t-60 75t-91.5 44t-108 22t-120 5.5h-299v-526zM330 776h317 q147 0 241.5 65.5t94.5 180.5q0 238 -354 238h-299v-484z" />
<glyph unicode="C" horiz-adv-x="1314" d="M102 702q0 330 164.5 524.5t433.5 194.5q196 0 326.5 -90t177.5 -258l-141 -35q-42 127 -137.5 186.5t-225.5 59.5q-202 0 -322 -154.5t-120 -427.5q0 -283 113 -440.5t317 -157.5q142 0 245 71.5t144 225.5l140 -34q-51 -192 -190.5 -296t-340.5 -104q-147 0 -259 53 t-183 150.5t-106.5 231.5t-35.5 300z" />
<glyph unicode="D" horiz-adv-x="1415" d="M182 0v1389h383q738 0 738 -662q0 -152 -36.5 -275.5t-100 -206.5t-151.5 -139t-187 -81t-210 -25h-436zM330 137h266q91 0 169.5 17.5t151 60.5t123.5 109t81 169t30 234q0 106 -24 190t-59 138t-91.5 93t-105.5 58.5t-119 30t-113 12.5t-104 2h-205v-1114z" />
<glyph unicode="E" horiz-adv-x="1132" d="M182 0v1389h830v-136h-682v-473h602v-133h-602v-512h704v-135h-852z" />
<glyph unicode="F" horiz-adv-x="1101" d="M182 0v1389h850v-140h-702v-499h612v-138h-612v-612h-148z" />
<glyph unicode="G" horiz-adv-x="1402" d="M113 702q0 172 46.5 309t130 226.5t198.5 136.5t253 47q198 0 333.5 -87.5t182.5 -250.5l-135 -39q-42 125 -145.5 184.5t-235.5 59.5q-220 0 -347.5 -151.5t-127.5 -434.5q0 -602 492 -602q206 0 358 56v376h-330v127h469v-604q-199 -88 -501 -88q-641 0 -641 735z" />
<glyph unicode="H" horiz-adv-x="1409" d="M182 0v1389h148v-603h751v603h148v-1389h-148v647h-751v-647h-148z" />
<glyph unicode="I" horiz-adv-x="509" d="M182 0v1389h148v-1389h-148z" />
<glyph unicode="J" horiz-adv-x="868" d="M37 31l18 147q108 -67 228 -67q123 0 193.5 70t70.5 214v994h149v-1000q0 -209 -107 -315.5t-296 -106.5q-147 0 -256 64z" />
<glyph unicode="K" horiz-adv-x="1280" d="M182 0v1389h154v-592h186l514 592h176l-563 -654l608 -735h-188l-545 653h-188v-653h-154z" />
<glyph unicode="L" horiz-adv-x="1075" d="M182 0v1389h148v-1250h661v-139h-809z" />
<glyph unicode="M" horiz-adv-x="1634" d="M182 0v1389h172l461 -732l465 732h174v-1389h-143v1167l-449 -706h-92l-444 706v-1167h-144z" />
<glyph unicode="N" horiz-adv-x="1445" d="M182 0v1389h168l772 -1141v1141h142v-1389h-156l-782 1155v-1155h-144z" />
<glyph unicode="O" horiz-adv-x="1447" d="M102 694q0 335 169.5 531t453.5 196q283 0 452 -196t169 -531q0 -333 -171 -530t-452 -197q-280 0 -450.5 197.5t-170.5 529.5zM258 694q0 -146 36.5 -261t100.5 -186t148 -108t182 -37q79 0 148 21.5t128 68.5t101 115.5t66 167t24 219.5q0 146 -36.5 261t-100.5 186 t-148 108t-182 37q-100 0 -183 -35t-147.5 -105t-100.5 -185.5t-36 -266.5z" />
<glyph unicode="P" horiz-adv-x="1234" d="M182 0v1389h506q60 0 117 -9.5t122 -38.5t113 -75t79.5 -126.5t31.5 -185.5q0 -207 -131 -328.5t-361 -121.5h-329v-504h-148zM330 639h329q92 0 160.5 25.5t106.5 70.5t55.5 98.5t17.5 116.5q0 40 -6.5 76t-27.5 79t-55 73.5t-96 51.5t-144 21h-340v-612z" />
<glyph unicode="Q" horiz-adv-x="1447" d="M102 694q0 335 169.5 531t453.5 196q283 0 452 -196t169 -531q0 -290 -131.5 -477.5t-356.5 -230.5q32 -86 104.5 -129t213.5 -47l-13 -142q-367 14 -454 301q-275 3 -441 199.5t-166 525.5zM258 694q0 -146 36.5 -261t100.5 -186t148 -108t182 -37q79 0 148 21.5 t128 68.5t101 115.5t66 167t24 219.5q0 146 -36.5 261t-100.5 186t-148 108t-182 37q-100 0 -183 -35.5t-147.5 -105.5t-100.5 -185.5t-36 -265.5z" />
<glyph unicode="R" horiz-adv-x="1284" d="M182 0v1389h514q67 0 128 -10t124 -37t108 -70t74 -114t29 -163q0 -164 -91 -264t-261 -125l405 -606h-174l-385 584h-323v-584h-148zM330 709h340q97 0 165.5 21.5t105.5 61.5t53 88.5t16 110.5q0 36 -6.5 68.5t-28 71t-56 66.5t-96 46.5t-143.5 18.5h-350v-553z" />
<glyph unicode="S" horiz-adv-x="1183" d="M90 324l139 38q64 -262 363 -262q151 0 245.5 70.5t94.5 189.5q0 62 -24.5 109t-72 78.5t-95 51t-115.5 38.5l-90 25q-50 14 -85.5 25.5t-80.5 30t-76 38.5t-63 49.5t-51 63.5t-31.5 80.5t-12.5 101.5q0 160 127.5 265t321.5 105q181 0 306 -76t167 -206l-139 -52 q-25 68 -78 114.5t-118 66.5t-140 20q-134 0 -213.5 -64t-79.5 -161q0 -48 16.5 -86t41.5 -64t67.5 -48t82.5 -36t99 -30l86 -25q71 -20 120 -37.5t107 -50t93 -72t59 -102t24 -141.5q0 -182 -139 -293t-356 -111q-432 0 -500 357z" />
<glyph unicode="T" horiz-adv-x="1167" d="M47 1249v140h1073v-140h-465v-1249h-145v1249h-463z" />
<glyph unicode="U" horiz-adv-x="1390" d="M172 512v877h147v-869q0 -111 30.5 -194t84.5 -130t119 -69.5t141 -22.5q77 0 142 22.5t119 69.5t85 130t31 194v869h148v-877q0 -258 -141.5 -401.5t-383.5 -143.5t-382 143.5t-140 401.5z" />
<glyph unicode="V" horiz-adv-x="1312" d="M43 1389h166l450 -1237l449 1237h162l-516 -1389h-195z" />
<glyph unicode="W" horiz-adv-x="2013" d="M61 1389h160l350 -1221l351 1221h176l342 -1221l358 1221h152l-418 -1389h-180l-342 1204l-351 -1204h-180z" />
<glyph unicode="X" horiz-adv-x="1298" d="M51 0l502 717l-463 672h178l385 -553l389 553h172l-473 -670l504 -719h-180l-418 596l-420 -596h-176z" />
<glyph unicode="Y" horiz-adv-x="1247" d="M41 1389h174l420 -654l403 654h166l-493 -801v-588h-156v588z" />
<glyph unicode="Z" horiz-adv-x="1132" d="M86 0v115l770 1134h-715v140h914v-113l-770 -1137h802v-139h-1001z" />
<glyph unicode="[" horiz-adv-x="718" d="M240 -375v1872h356v-117h-231v-1638h231v-117h-356z" />
<glyph unicode="\" horiz-adv-x="770" d="M0 1497h127l643 -1622h-125z" />
<glyph unicode="]" horiz-adv-x="718" d="M123 -258h231v1638h-231v117h356v-1872h-356v117z" />
<glyph unicode="^" horiz-adv-x="1077" d="M92 573l387 873h121l385 -873h-139l-307 723l-310 -723h-137z" />
<glyph unicode="_" d="M0 -156h1196v-125h-1196v125z" />
<glyph unicode="`" horiz-adv-x="1024" d="M352 1540h152l168 -336h-111z" />
<glyph unicode="a" horiz-adv-x="1105" d="M125 279q0 67 20 118.5t68 94.5t124.5 71t191.5 43t268 15v104q0 252 -246 252q-122 0 -188 -58t-74 -167l-127 22q4 85 40 149.5t92.5 101.5t121 55t135.5 18q100 0 175 -28t119.5 -78t66.5 -113.5t22 -139.5v-544q0 -99 76 -99q28 0 69 13l17 -113q-58 -21 -127 -21 q-72 0 -111 35.5t-51 108.5q-56 -64 -152 -104t-200 -40q-144 0 -237 76.5t-93 227.5zM266 287q0 -91 60 -141t163 -50q85 0 171 36.5t137 98.5v279q-137 0 -235.5 -12t-155 -31t-89 -49.5t-42 -60t-9.5 -70.5z" />
<glyph unicode="b" horiz-adv-x="1165" d="M168 47v1450h137v-448q104 49 244 49q87 0 160 -16.5t141.5 -58t116 -106t76 -167.5t28.5 -236q0 -88 -17.5 -165t-57.5 -146.5t-99.5 -119.5t-150 -79t-203.5 -29q-198 0 -375 72zM305 133q104 -35 250 -35q99 0 174 34.5t118.5 94.5t65 133.5t21.5 159.5 q0 455 -408 455q-115 0 -221 -41v-801z" />
<glyph unicode="c" horiz-adv-x="1085" d="M92 539q0 84 17 162t54.5 151t93 127t138.5 86.5t185 32.5q300 0 413 -273l-129 -39q-84 193 -284 193q-80 0 -142.5 -30t-99.5 -75.5t-61 -106.5t-32.5 -116.5t-8.5 -111.5q0 -57 8.5 -113t32 -117.5t60.5 -107.5t99.5 -76.5t143.5 -30.5q200 0 284 193l129 -39 q-113 -273 -413 -273q-102 0 -185 32.5t-138.5 87t-93 128t-54.5 152.5t-17 164z" />
<glyph unicode="d" horiz-adv-x="1165" d="M92 510q0 133 29 236t77.5 168.5t118 107.5t144.5 59t164 17q63 0 128.5 -13t104.5 -32v444h137v-1450q-174 -72 -372 -72q-141 0 -245.5 40t-166 113.5t-90.5 168.5t-29 213zM231 516q0 -89 21 -162.5t64.5 -132t117.5 -91t174 -32.5q153 0 250 31v807q-91 39 -217 39 q-410 0 -410 -459z" />
<glyph unicode="e" horiz-adv-x="1058" d="M92 541q0 89 17.5 170t55 152t92.5 123t134.5 82t175.5 30q181 0 289.5 -83.5t108.5 -232.5q0 -90 -31 -152t-90.5 -96t-133.5 -48.5t-173 -14.5q-190 0 -304 25q7 -196 104 -297t267 -101t322 78l18 -123q-150 -78 -350 -78q-242 0 -372 149t-130 417zM233 614 q122 -26 302 -26q161 0 230 46t69 148q0 92 -69 146.5t-200 54.5q-151 0 -237 -97t-95 -272z" />
<glyph unicode="f" horiz-adv-x="677" d="M45 961v112h143v137q0 287 320 287q101 0 192 -31l-20 -114q-73 26 -150 26q-109 0 -156.5 -40t-47.5 -140v-125h329v-112h-329v-961h-138v961h-143z" />
<glyph unicode="g" horiz-adv-x="1099" d="M70 -150q0 92 55.5 159.5t165.5 94.5q-49 19 -83 71t-34 112q0 95 59 184q-46 45 -73 113.5t-27 146.5q0 170 110 268.5t302 98.5q95 0 168 -25h340v-110h-191q88 -88 88 -232q0 -170 -107.5 -266t-299.5 -96q-132 0 -215 47q-31 -52 -31 -109q0 -133 221 -133h211 q344 0 344 -274q0 -152 -144.5 -246t-389.5 -94q-219 0 -344 72.5t-125 217.5zM211 -133q0 -104 91.5 -155.5t246.5 -51.5q73 0 139.5 13t122 39t88.5 70.5t33 102.5q0 92 -62 131t-194 39h-195q-132 0 -201 -52.5t-69 -135.5zM274 731q0 -124 70 -191t199 -67q128 0 197 67 t69 191t-69 191t-195 67q-129 0 -200 -67t-71 -191z" />
<glyph unicode="h" horiz-adv-x="1179" d="M168 0v1497h137v-569q43 71 128.5 120.5t211.5 49.5q98 0 172.5 -30t120 -83.5t68 -121.5t22.5 -148v-715h-137v709q0 122 -71.5 191t-207.5 69q-112 0 -194 -58t-113 -129v-782h-137z" />
<glyph unicode="i" horiz-adv-x="489" d="M160 1411q0 35 24.5 60.5t61.5 25.5t60.5 -25.5t23.5 -60.5q0 -39 -23 -63.5t-61 -24.5t-62 25t-24 63zM176 0v1073h137v-1073h-137z" />
<glyph unicode="j" horiz-adv-x="505" d="M-76 -387l17 119q63 -17 110 -17q69 0 101 39t32 125v1194h135v-1229q0 -126 -65 -189t-178 -63q-85 0 -152 21zM168 1411q0 35 24 60.5t62 25.5q36 0 59 -25.5t23 -60.5q0 -39 -23 -63.5t-59 -24.5q-39 0 -62.5 24.5t-23.5 63.5z" />
<glyph unicode="k" horiz-adv-x="1083" d="M168 0v1497h137v-854h160l375 430h166l-431 -487l480 -586h-172l-416 514h-162v-514h-137z" />
<glyph unicode="l" horiz-adv-x="575" d="M168 227v1270h137v-1249q0 -76 26 -114t91 -38q60 0 110 19l13 -117q-68 -23 -156 -23q-115 0 -168 59.5t-53 192.5z" />
<glyph unicode="m" horiz-adv-x="1808" d="M168 0v1073h137v-145q42 71 122 120.5t202 49.5q242 0 321 -203q111 203 346 203q95 0 165.5 -30t112 -83.5t61.5 -121t20 -150.5v-713h-135v711q0 123 -63 190.5t-189 67.5q-102 0 -181 -55.5t-110 -147.5q4 -35 4 -74v-692h-137v711q0 123 -63 190.5t-189 67.5 q-104 0 -180 -57.5t-107 -129.5v-782h-137z" />
<glyph unicode="n" horiz-adv-x="1179" d="M168 0v1073h137v-145q41 70 128 120t212 50q98 0 172.5 -29.5t120 -82.5t68 -121.5t22.5 -151.5v-713h-137v705q0 125 -71 194.5t-208 69.5q-113 0 -194 -58t-113 -127v-784h-137z" />
<glyph unicode="o" horiz-adv-x="1165" d="M92 539q0 84 17 162t55 151t94 127t140 86.5t186 32.5t185 -32.5t138.5 -86.5t93.5 -127t55 -151t17 -162q0 -107 -28 -204.5t-84.5 -179.5t-153.5 -131t-223 -49q-127 0 -224.5 49t-154 131t-85 179.5t-28.5 204.5zM236 539q0 -46 6.5 -93t21 -98.5t41.5 -95.5 t63.5 -80.5t92 -57t123.5 -20.5q67 0 122 20.5t92 57t63.5 80.5t41 95.5t21 98.5t6.5 93q0 56 -9 111.5t-33 116.5t-61 106.5t-100 75.5t-143 30q-81 0 -144 -30t-100.5 -75.5t-61.5 -106.5t-33 -116.5t-9 -111.5z" />
<glyph unicode="p" horiz-adv-x="1165" d="M170 -393v1419q174 72 373 72q138 0 240.5 -39t164.5 -111t92.5 -168t30.5 -217q0 -131 -28.5 -233.5t-77 -168.5t-117.5 -108.5t-144.5 -60t-164.5 -17.5q-64 0 -129.5 12.5t-104.5 32.5v-413h-135zM305 137q94 -39 219 -39q410 0 410 459q0 89 -21 162.5t-64.5 132 t-117.5 91t-174 32.5q-152 0 -252 -31v-807z" />
<glyph unicode="q" horiz-adv-x="1165" d="M92 559q0 88 17.5 165t57.5 146.5t100.5 119.5t151.5 79t204 29q195 0 372 -72v-1419h-137v418q-105 -50 -244 -50q-87 0 -160 16.5t-141.5 58t-116 106t-76 167.5t-28.5 236zM231 553q0 -455 408 -455q113 0 219 41v801q-104 35 -250 35q-99 0 -174 -34.5t-118 -94.5 t-64 -133.5t-21 -159.5z" />
<glyph unicode="r" horiz-adv-x="804" d="M168 0v1073h133v-172q64 102 156 148.5t188 46.5q46 0 96 -13l-20 -135q-40 13 -78 13q-118 0 -204.5 -56.5t-133.5 -148.5v-756h-137z" />
<glyph unicode="s" horiz-adv-x="993" d="M96 256l125 35q59 -203 287 -203q112 0 188 51.5t76 145.5q0 78 -55 120t-160 72l-72 19q-39 11 -61.5 18t-57.5 19t-56 21.5t-49 24.5t-44.5 30t-34.5 36t-28 44.5t-16.5 52.5t-6.5 63q0 126 106 209.5t263 83.5q150 0 250.5 -60.5t134.5 -165.5l-125 -38 q-57 151 -258 151q-106 0 -169 -49.5t-63 -120.5q0 -29 7.5 -51.5t27.5 -41t37 -30.5t56.5 -26.5t63 -21.5t77.5 -23l65 -19q59 -17 99 -31.5t82.5 -39.5t67.5 -55.5t41.5 -77t16.5 -105.5q0 -149 -116 -233.5t-287 -84.5q-168 0 -275.5 72.5t-136.5 208.5z" />
<glyph unicode="t" horiz-adv-x="772" d="M76 958v60l200 227h43v-172h347v-115h-347v-647q0 -111 52.5 -163t154.5 -52q93 0 185 29l18 -115q-107 -35 -233 -35q-173 0 -243.5 89.5t-70.5 297.5v596h-106z" />
<glyph unicode="u" horiz-adv-x="1157" d="M152 356v717h137v-706q0 -57 12 -102t40 -82.5t80.5 -58t127.5 -20.5q111 0 192.5 56t110.5 125v788h137v-1073h-131v147q-43 -72 -131 -122t-217 -50q-92 0 -162 28.5t-112 80.5t-63 120.5t-21 151.5z" />
<glyph unicode="v" horiz-adv-x="1067" d="M43 1073h147l340 -897l344 897h148l-420 -1073h-141z" />
<glyph unicode="w" horiz-adv-x="1581" d="M51 1073h142l249 -878l285 878h127l285 -878l252 878h137l-320 -1073h-129l-288 868l-289 -868h-131z" />
<glyph unicode="x" horiz-adv-x="1054" d="M51 0l383 557l-350 516h158l284 -424l287 424h158l-353 -514l386 -559h-166l-316 463l-311 -463h-160z" />
<glyph unicode="y" horiz-adv-x="1067" d="M51 1073h150l356 -919l328 919h139l-430 -1184q-58 -156 -144 -226.5t-225 -70.5q-82 0 -155 31l18 115q61 -23 119 -23q110 0 169.5 63t106.5 206z" />
<glyph unicode="z" horiz-adv-x="976" d="M86 0v106l629 846h-570v121h748v-108l-627 -844h639v-121h-819z" />
<glyph unicode="{" horiz-adv-x="718" d="M86 504v114q67 0 107 27.5t64 107.5t24 222v225q0 152 62 224.5t206 72.5h90v-113h-57q-58 0 -93.5 -12.5t-54.5 -43.5t-25 -69.5t-6 -103.5v-215q0 -101 -14 -173.5t-39.5 -113.5t-52.5 -61.5t-61 -30.5q34 -10 61 -30.5t52.5 -61.5t39.5 -113.5t14 -173.5v-215 q0 -65 6 -103.5t25 -69.5t54.5 -43.5t93.5 -12.5h57v-113h-90q-144 0 -206 72.5t-62 224.5v225q0 142 -24 222t-64 107.5t-107 27.5z" />
<glyph unicode="|" horiz-adv-x="491" d="M186 -375v1872h119v-1872h-119z" />
<glyph unicode="}" horiz-adv-x="718" d="M82 -262h55q59 0 95 12.5t54.5 43.5t24.5 69.5t6 103.5v215q0 101 14 173.5t39 113.5t52 61.5t61 30.5q-34 10 -61 30.5t-52 61.5t-39 113.5t-14 173.5v215q0 65 -6 103.5t-24.5 69.5t-54.5 43.5t-95 12.5h-55v113h88q145 0 206.5 -72.5t61.5 -224.5v-225 q0 -107 12.5 -178t39 -110t60.5 -54t83 -15v-114q-49 0 -83 -15t-60.5 -54t-39 -110t-12.5 -178v-225q0 -152 -61.5 -224.5t-206.5 -72.5h-88v113z" />
<glyph unicode="~" horiz-adv-x="1077" d="M63 573v144q48 53 112 85t134 32q53 0 118 -21.5t115.5 -47.5t113 -47.5t112.5 -21.5q77 0 131.5 34t114.5 101v-143q-107 -119 -246 -119q-53 0 -117.5 22t-115 48t-113.5 48t-113 22q-77 0 -129.5 -33.5t-116.5 -102.5z" />
<glyph unicode="&#xa1;" horiz-adv-x="589" d="M188 991q0 45 29 76t78 31q48 0 77 -31.5t29 -75.5q0 -42 -29 -72t-77 -30t-77.5 30t-29.5 72zM215 94l29 602h100l29 -602v-495h-158v495z" />
<glyph unicode="&#xa2;" horiz-adv-x="1200" d="M109 545q0 142 48 259t147.5 195.5t236.5 94.5v217h110v-217q149 -11 246.5 -88t130.5 -189l-127 -33q-29 82 -93.5 130t-156.5 59v-873q100 10 167.5 69.5t94.5 156.5l127 -33q-28 -123 -131 -212.5t-258 -100.5v-218h-110v218q-213 21 -322.5 174.5t-109.5 390.5z M250 543q0 -187 73.5 -303.5t217.5 -137.5v869q-144 -22 -217.5 -137.5t-73.5 -290.5z" />
<glyph unicode="&#xa3;" horiz-adv-x="1200" d="M98 647v111h197q-74 186 -74 284q0 175 117.5 285.5t310.5 110.5q173 0 283.5 -81.5t154.5 -228.5l-131 -32q-38 109 -117.5 163t-183.5 54q-137 0 -212.5 -76t-75.5 -209q0 -20 4 -44.5t8 -42.5t14 -50t14.5 -44t17.5 -48t15 -41h404v-111h-365q45 -125 45 -196 q0 -98 -54 -183t-140 -137h751v-131h-958v106q50 26 92.5 57t83 73.5t63.5 98t23 116.5q0 64 -43 180l-6 16h-238z" />
<glyph unicode="&#xa4;" horiz-adv-x="1056" d="M80 287l221 219q-41 62 -41 143q0 80 41 142l-219 219l84 90l217 -217q64 45 147 45q78 0 146 -43l217 217l84 -92l-219 -217q45 -64 45 -144q0 -81 -45 -145l219 -215l-86 -90l-217 215q-68 -43 -146 -43q-80 0 -145 43l-217 -217zM375 649q0 -69 40.5 -119.5 t112.5 -50.5q69 0 114.5 52t45.5 118t-44 117t-114 51q-72 0 -113.5 -50.5t-41.5 -117.5z" />
<glyph unicode="&#xa5;" d="M70 1413h157l416 -684l401 684h152l-305 -510h237v-108h-297l-116 -199h413v-111h-415v-485h-142v485h-415v111h413l-120 199h-293v108h231z" />
<glyph unicode="&#xa6;" horiz-adv-x="491" d="M186 301h119v-676h-119v676zM186 821v676h119v-676h-119z" />
<glyph unicode="&#xa7;" d="M184 676q0 72 40 149.5t114 130.5q-100 84 -100 220q0 140 108.5 230.5t269.5 90.5q160 0 270.5 -66.5t147.5 -181.5l-125 -47q-32 87 -112 129.5t-185 42.5q-99 0 -165 -53.5t-66 -136.5q0 -73 52 -119.5t188 -116.5l151 -76q39 -21 55 -29.5t52 -29t52 -32t45 -34 t43 -40t33 -43.5t28 -51t15.5 -57t6.5 -67q0 -68 -37.5 -146.5t-106.5 -135.5q113 -102 113 -223q0 -147 -118 -253t-302 -106q-159 0 -277 73t-155 189l123 50q34 -88 125 -138.5t195 -50.5q118 0 192 63.5t74 151.5q0 79 -54.5 131.5t-197.5 124.5l-160 82q-35 18 -50 26 t-47 26t-47.5 29t-42.5 29.5t-41 33.5t-34 36t-30 41t-20.5 45t-15 52t-4.5 57zM330 690q0 -79 57 -133t193 -125l227 -121l53 -30q45 35 70.5 86.5t25.5 107.5q0 84 -57.5 141.5t-193.5 128.5l-173 93l-94 49q-108 -76 -108 -197z" />
<glyph unicode="&#xa8;" horiz-adv-x="1024" d="M254 1346q0 33 23 57t59 24q34 0 57 -24t23 -57q0 -37 -22.5 -61.5t-57.5 -24.5q-36 0 -59 24.5t-23 61.5zM608 1343q0 34 22.5 59t59.5 25q34 0 56 -24.5t22 -59.5q0 -33 -20.5 -58t-57.5 -25q-36 0 -59 23.5t-23 59.5z" />
<glyph unicode="&#xa9;" horiz-adv-x="1654" d="M70 731q0 157 56.5 297.5t155.5 244t241 164t304 60.5t304 -60.5t241 -164t156 -244t57 -297.5t-57 -297.5t-156 -244t-241 -164t-304 -60.5t-304 60.5t-241 164t-155.5 244t-56.5 297.5zM176 731q0 -186 81.5 -338.5t231.5 -242t338 -89.5q189 0 339.5 89.5t232.5 242 t82 338.5t-82 338.5t-232.5 242t-339.5 89.5q-188 0 -338 -89.5t-231.5 -242t-81.5 -338.5zM446 737q0 96 24 177.5t71.5 145.5t124.5 100t176 36q138 0 216.5 -62.5t110.5 -160.5l-106 -25q-25 64 -81 104t-140 40q-78 0 -134.5 -32t-85.5 -86t-42 -112t-13 -123 q0 -368 285 -368q84 0 142 45.5t81 128.5l101 -21q-26 -112 -113 -185t-213 -73q-109 0 -189.5 38.5t-126 105.5t-67 148.5t-21.5 178.5z" />
<glyph unicode="&#xaa;" horiz-adv-x="745" d="M78 938q0 69 35 114t127.5 72.5t246.5 28.5v61q0 134 -135 134q-138 0 -147 -125l-109 18q5 68 45 114t94.5 64.5t120.5 18.5q246 0 246 -213v-320q0 -29 9.5 -43t33.5 -14q20 0 41 6l12 -86q-46 -16 -92 -16q-90 0 -108 84q-35 -38 -94 -61t-121 -23q-91 0 -148 47.5 t-57 138.5zM193 948q0 -49 33 -75.5t89 -26.5q47 0 94.5 20.5t77.5 55.5v147q-74 0 -128 -7t-85.5 -17.5t-50 -27t-24.5 -32.5t-6 -37z" />
<glyph unicode="&#xab;" horiz-adv-x="956" d="M104 553l209 342h142l-209 -342l209 -338h-142zM467 553l211 342h139l-207 -342l207 -338h-139z" />
<glyph unicode="&#xac;" horiz-adv-x="1077" d="M59 639v129h961v-596h-123v467h-838z" />
<glyph unicode="&#xad;" horiz-adv-x="598" d="M70 494v143h456v-143h-456z" />
<glyph unicode="&#xae;" horiz-adv-x="1654" d="M70 731q0 208 99.5 384t274 279t383.5 103t383.5 -103t274.5 -279t100 -384t-100 -384t-274.5 -279t-383.5 -103t-383.5 103t-274 279t-99.5 384zM176 731q0 -138 50 -262t136.5 -213.5t207.5 -142t257 -52.5q181 0 331 89t235.5 243t85.5 338t-85.5 338t-235.5 243 t-331 89q-136 0 -257 -52.5t-207.5 -142t-136.5 -213.5t-50 -262zM537 293v876h311q170 0 248 -67t78 -182q0 -45 -11 -83.5t-35.5 -73.5t-69.5 -60t-106 -35l250 -375h-139l-232 354h-178v-354h-116zM653 748h185q120 0 168.5 40t48.5 125q0 154 -219 154h-183v-319z" />
<glyph unicode="&#xaf;" horiz-adv-x="1024" d="M221 1300v93h582v-93h-582z" />
<glyph unicode="&#xb0;" horiz-adv-x="765" d="M96 1143q0 121 82 206t205 85t205 -85t82 -206t-82 -206t-205 -85t-205 85t-82 206zM195 1143q0 -76 52 -134.5t136 -58.5q83 0 134.5 58.5t51.5 134.5q0 75 -52 134.5t-134 59.5q-83 0 -135.5 -59.5t-52.5 -134.5z" />
<glyph unicode="&#xb1;" horiz-adv-x="1077" d="M57 33v127h963v-127h-963zM57 639v127h420v395h121v-395h422v-127h-422v-395h-119v395h-422z" />
<glyph unicode="&#xb2;" horiz-adv-x="862" d="M143 553v90l228 182q141 114 193 184t52 162q0 67 -45 117.5t-133 50.5q-75 0 -122.5 -34.5t-59.5 -96.5l-104 21q12 72 60 121t108.5 68.5t130.5 19.5q125 0 204.5 -72.5t79.5 -187.5q0 -105 -57.5 -188.5t-192.5 -188.5l-186 -148h461v-100h-617z" />
<glyph unicode="&#xb3;" horiz-adv-x="841" d="M133 737l107 29q11 -60 59 -97.5t131 -37.5q95 0 149 45.5t54 122.5q0 79 -64 119t-176 40h-84v93h80q116 0 168.5 38t52.5 113q0 69 -50 106.5t-124 37.5q-75 0 -124.5 -34.5t-61.5 -97.5l-105 21q14 73 63 120t107 64t127 17q123 0 204 -58t81 -161q0 -83 -45 -137.5 t-125 -71.5q85 -20 139 -72.5t54 -144.5q0 -112 -88 -183t-228 -71q-52 0 -98.5 10t-90 32t-73.5 62.5t-39 95.5z" />
<glyph unicode="&#xb4;" horiz-adv-x="1024" d="M352 1204l168 336h152l-209 -336h-111z" />
<glyph unicode="&#xb5;" horiz-adv-x="1101" d="M131 -410v1483h137v-713q0 -127 70 -189t190 -62q172 0 269 149q23 35 31 55t8 54v706h137v-917q0 -68 53 -68q28 0 49 8l10 -96q-47 -14 -94 -14q-36 0 -62.5 11.5t-41 27.5t-24 44t-13 50.5t-6.5 58.5q-54 -93 -142.5 -148t-195.5 -55q-76 0 -142 25t-104 76l8 -486 h-137z" />
<glyph unicode="&#xb6;" horiz-adv-x="1112" d="M100 899q0 222 121.5 356t337.5 134h524v-123h-200v-1225q0 -137 -45 -244t-141.5 -172t-233.5 -65q-41 0 -64 2l9 119q5 0 16.5 -1.5t17.5 -1.5q155 0 230.5 103t75.5 272v363h-197q-216 0 -333.5 132.5t-117.5 350.5z" />
<glyph unicode="&#xb7;" horiz-adv-x="460" d="M129 545q0 42 28.5 72t73.5 30t73 -30t28 -72q0 -46 -27.5 -77.5t-73.5 -31.5t-74 31.5t-28 77.5z" />
<glyph unicode="&#xb8;" horiz-adv-x="1024" d="M311 -420l33 84q75 -35 145 -35q48 0 85.5 23t37.5 67q0 80 -106 80q-41 0 -76 -14l-29 80q53 26 119 26q82 0 137.5 -41.5t55.5 -128.5q0 -89 -65 -134.5t-152 -45.5q-102 0 -185 39z" />
<glyph unicode="&#xb9;" horiz-adv-x="647" d="M63 1309l252 114h107v-870h-117v752l-205 -93z" />
<glyph unicode="&#xba;" horiz-adv-x="731" d="M55 1098q0 66 18 125t53.5 108t97 78t141.5 29q79 0 140 -29t96.5 -78t53 -108t17.5 -125q0 -68 -17.5 -128.5t-53 -110t-96.5 -78.5t-140 -29q-80 0 -141 29t-97 78.5t-54 110t-18 128.5zM172 1098q0 -43 9 -83t29.5 -79t60 -62.5t94.5 -23.5q44 0 78 16t54.5 40.5 t34 58.5t18.5 66.5t5 66.5q0 41 -9 80.5t-29 77t-59.5 60.5t-92.5 23q-54 0 -94 -23t-60 -60.5t-29.5 -77t-9.5 -80.5z" />
<glyph unicode="&#xbb;" horiz-adv-x="956" d="M139 215l207 338l-207 342h140l210 -342l-210 -338h-140zM502 215l209 338l-209 342h141l209 -342l-209 -338h-141z" />
<glyph unicode="&#xbc;" horiz-adv-x="1734" d="M141 1309l250 114h107v-870h-117v752l-203 -93zM399 -39l785 1505h106l-780 -1505h-111zM934 205v94l395 571h141v-571h140v-94h-140v-205h-114v205h-422zM1036 299h320v463z" />
<glyph unicode="&#xbd;" horiz-adv-x="1810" d="M133 1309l252 114h107v-870h-117v752l-205 -93zM393 -39l783 1505h108l-780 -1505h-111zM1067 0v90l227 182q142 114 194 184t52 162q0 67 -45 117.5t-133 50.5q-75 0 -122.5 -34.5t-59.5 -96.5l-105 21q12 72 60 121t108.5 68.5t130.5 19.5q125 0 205 -72.5t80 -187.5 q0 -105 -57.5 -188.5t-192.5 -188.5l-186 -148h460v-100h-616z" />
<glyph unicode="&#xbe;" horiz-adv-x="1894" d="M156 737l106 29q11 -60 59.5 -97.5t131.5 -37.5q93 0 147.5 44.5t54.5 123.5q0 80 -63 119.5t-176 39.5h-84v93h80q116 0 168.5 38t52.5 113q0 69 -50.5 106.5t-123.5 37.5t-123.5 -34.5t-63.5 -97.5l-102 21q13 73 62 120t107.5 64t127.5 17q121 0 202 -58t81 -161 q0 -83 -45 -137.5t-125 -71.5q85 -19 138.5 -72t53.5 -145q0 -112 -87.5 -183t-227.5 -71q-52 0 -98.5 10t-90 32t-73.5 62.5t-39 95.5zM575 -39l783 1505h104l-780 -1505h-107zM1094 205v94l407 571h141v-571h140v-94h-140v-205h-112v205h-436zM1208 299h322v463z" />
<glyph unicode="&#xbf;" horiz-adv-x="1075" d="M127 -35q0 36 4.5 69t15.5 64t20.5 54.5t30 52t31.5 44.5t38 43l37.5 37.5t41 38.5t37.5 35q65 62 100 130.5t35 164.5h135q0 -130 -47 -218t-129 -163q-50 -45 -77.5 -73t-63 -73t-52 -92.5t-16.5 -101.5q0 -122 78.5 -191t194.5 -69q132 0 214 74t97 203l135 -27 q-22 -173 -141.5 -275t-308.5 -102q-179 0 -294.5 102t-115.5 273zM475 991q0 44 28 75.5t77 31.5t77.5 -31.5t28.5 -75.5q0 -43 -29 -73.5t-77 -30.5t-76.5 30.5t-28.5 73.5z" />
<glyph unicode="&#xc0;" horiz-adv-x="1370" d="M41 0l563 1389h160l565 -1389h-162l-145 358h-680l-145 -358h-156zM387 492h590l-297 720zM418 1806h151l168 -336h-110z" />
<glyph unicode="&#xc1;" horiz-adv-x="1370" d="M41 0l563 1389h160l565 -1389h-162l-145 358h-680l-145 -358h-156zM387 492h590l-297 720zM621 1470l167 336h152l-209 -336h-110z" />
<glyph unicode="&#xc2;" horiz-adv-x="1370" d="M41 0l563 1389h160l565 -1389h-162l-145 358h-680l-145 -358h-156zM379 1470l229 336h146l225 -336h-117l-182 236l-184 -236h-117zM387 492h590l-297 720z" />
<glyph unicode="&#xc3;" horiz-adv-x="1370" d="M41 0l563 1389h160l565 -1389h-162l-145 358h-680l-145 -358h-156zM354 1501q16 95 63.5 152t123.5 57q27 0 54 -9t41.5 -16.5t43.5 -25.5l55 -33q56 -31 86 -31q72 0 101 113l84 -18q-16 -95 -64 -153t-123 -58q-14 0 -28 2.5t-23.5 5t-25 10t-20.5 10t-22.5 12.5 t-19.5 11l-55 33q-55 32 -86 32q-75 0 -101 -112zM387 492h590l-297 720z" />
<glyph unicode="&#xc4;" horiz-adv-x="1370" d="M41 0l563 1389h160l565 -1389h-162l-145 358h-680l-145 -358h-156zM387 492h590l-297 720zM422 1612q0 33 23 57.5t59 24.5q34 0 57 -24.5t23 -57.5q0 -37 -22.5 -61.5t-57.5 -24.5q-36 0 -59 24.5t-23 61.5zM776 1610q0 34 22.5 59t59.5 25q34 0 56 -24.5t22 -59.5 q0 -33 -20.5 -58.5t-57.5 -25.5q-36 0 -59 24t-23 60z" />
<glyph unicode="&#xc5;" horiz-adv-x="1370" d="M41 0l563 1389h160l565 -1389h-162l-145 358h-680l-145 -358h-156zM387 492h590l-297 720zM473 1642q0 83 57 137t150 54t150 -54t57 -137t-57.5 -137.5t-149.5 -54.5t-149.5 54.5t-57.5 137.5zM580 1642q0 -46 27.5 -76t72.5 -30t71.5 29t28.5 77q0 47 -27 77t-73 30 q-45 0 -71.5 -29.5t-28.5 -77.5z" />
<glyph unicode="&#xc6;" horiz-adv-x="1941" d="M25 0l753 1389h1045v-136h-684v-524h604v-135h-604v-459h704v-135h-852v567h-493l-312 -567h-161zM571 705h420v546h-119z" />
<glyph unicode="&#xc7;" horiz-adv-x="1314" d="M102 702q0 330 164.5 524.5t433.5 194.5q196 0 326.5 -90t177.5 -258l-141 -35q-42 127 -137.5 186.5t-225.5 59.5q-202 0 -322 -154.5t-120 -427.5q0 -283 113 -440.5t317 -157.5q142 0 245 71.5t144 225.5l140 -34q-51 -192 -190.5 -296t-340.5 -104q-147 0 -259 53 t-183 150.5t-106.5 231.5t-35.5 300zM481 -420l33 84q75 -35 145 -35q48 0 85.5 23t37.5 67q0 80 -106 80q-41 0 -76 -14l-29 80q53 26 119 26q82 0 137.5 -41.5t55.5 -128.5q0 -89 -65 -134.5t-152 -45.5q-102 0 -185 39z" />
<glyph unicode="&#xc8;" horiz-adv-x="1132" d="M182 0v1389h830v-136h-682v-473h602v-133h-602v-512h704v-135h-852zM336 1806h151l168 -336h-110z" />
<glyph unicode="&#xc9;" horiz-adv-x="1132" d="M182 0v1389h830v-136h-682v-473h602v-133h-602v-512h704v-135h-852zM539 1470l168 336h151l-209 -336h-110z" />
<glyph unicode="&#xca;" horiz-adv-x="1132" d="M182 0v1389h830v-136h-682v-473h602v-133h-602v-512h704v-135h-852zM295 1470l229 336h146l225 -336h-117l-182 236l-184 -236h-117z" />
<glyph unicode="&#xcb;" horiz-adv-x="1132" d="M182 0v1389h830v-136h-682v-473h602v-133h-602v-512h704v-135h-852zM338 1612q0 33 23 57.5t59 24.5q34 0 57 -24.5t23 -57.5q0 -37 -22.5 -61.5t-57.5 -24.5q-36 0 -59 24.5t-23 61.5zM692 1610q0 34 22.5 59t59.5 25q34 0 56 -24.5t22 -59.5q0 -33 -20.5 -58.5 t-57.5 -25.5q-36 0 -59 24t-23 60z" />
<glyph unicode="&#xcc;" horiz-adv-x="509" d="M-4 1806h151l168 -336h-110zM182 0v1389h148v-1389h-148z" />
<glyph unicode="&#xcd;" horiz-adv-x="509" d="M182 0v1389h148v-1389h-148zM199 1470l168 336h151l-209 -336h-110z" />
<glyph unicode="&#xce;" horiz-adv-x="509" d="M-45 1470l229 336h146l225 -336h-117l-182 236l-184 -236h-117zM182 0v1389h148v-1389h-148z" />
<glyph unicode="&#xcf;" horiz-adv-x="509" d="M-2 1612q0 33 23 57.5t59 24.5q34 0 57 -24.5t23 -57.5q0 -37 -22.5 -61.5t-57.5 -24.5q-36 0 -59 24.5t-23 61.5zM182 0v1389h148v-1389h-148zM352 1610q0 34 22.5 59t59.5 25q34 0 56 -24.5t22 -59.5q0 -33 -20.5 -58.5t-57.5 -25.5q-36 0 -59 24t-23 60z" />
<glyph unicode="&#xd0;" horiz-adv-x="1415" d="M20 655v119h162v615h383q738 0 738 -662q0 -152 -36.5 -275.5t-100 -206.5t-151.5 -139t-187 -81t-210 -25h-436v655h-162zM330 137h266q91 0 169.5 17.5t151 60.5t123.5 109t81 169t30 234q0 106 -24 190t-59 138t-91.5 93t-105.5 58.5t-119 30t-113 12.5t-104 2h-205 v-477h370v-119h-370v-518z" />
<glyph unicode="&#xd1;" horiz-adv-x="1445" d="M182 0v1389h168l772 -1141v1141h142v-1389h-156l-782 1155v-1155h-144zM395 1501q16 95 63.5 152t123.5 57q27 0 54 -9t41.5 -16.5t43.5 -25.5l55 -33q56 -31 86 -31q72 0 101 113l84 -18q-16 -95 -64 -153t-123 -58q-14 0 -28 2.5t-23.5 5t-25 10t-20.5 10t-22.5 12.5 t-19.5 11l-55 33q-55 32 -86 32q-75 0 -101 -112z" />
<glyph unicode="&#xd2;" horiz-adv-x="1447" d="M102 694q0 335 169.5 531t453.5 196q283 0 452 -196t169 -531q0 -333 -171 -530t-452 -197q-280 0 -450.5 197.5t-170.5 529.5zM258 694q0 -146 36.5 -261t100.5 -186t148 -108t182 -37q79 0 148 21.5t128 68.5t101 115.5t66 167t24 219.5q0 146 -36.5 261t-100.5 186 t-148 108t-182 37q-100 0 -183 -35t-147.5 -105t-100.5 -185.5t-36 -266.5zM463 1806h151l168 -336h-110z" />
<glyph unicode="&#xd3;" horiz-adv-x="1447" d="M102 694q0 335 169.5 531t453.5 196q283 0 452 -196t169 -531q0 -333 -171 -530t-452 -197q-280 0 -450.5 197.5t-170.5 529.5zM258 694q0 -146 36.5 -261t100.5 -186t148 -108t182 -37q79 0 148 21.5t128 68.5t101 115.5t66 167t24 219.5q0 146 -36.5 261t-100.5 186 t-148 108t-182 37q-100 0 -183 -35t-147.5 -105t-100.5 -185.5t-36 -266.5zM666 1470l168 336h151l-209 -336h-110z" />
<glyph unicode="&#xd4;" horiz-adv-x="1447" d="M102 694q0 335 169.5 531t453.5 196q283 0 452 -196t169 -531q0 -333 -171 -530t-452 -197q-280 0 -450.5 197.5t-170.5 529.5zM258 694q0 -146 36.5 -261t100.5 -186t148 -108t182 -37q79 0 148 21.5t128 68.5t101 115.5t66 167t24 219.5q0 146 -36.5 261t-100.5 186 t-148 108t-182 37q-100 0 -183 -35t-147.5 -105t-100.5 -185.5t-36 -266.5zM422 1470l229 336h146l225 -336h-117l-182 236l-184 -236h-117z" />
<glyph unicode="&#xd5;" horiz-adv-x="1447" d="M102 694q0 335 169.5 531t453.5 196q283 0 452 -196t169 -531q0 -333 -171 -530t-452 -197q-280 0 -450.5 197.5t-170.5 529.5zM258 694q0 -146 36.5 -261t100.5 -186t148 -108t182 -37q79 0 148 21.5t128 68.5t101 115.5t66 167t24 219.5q0 146 -36.5 261t-100.5 186 t-148 108t-182 37q-100 0 -183 -35t-147.5 -105t-100.5 -185.5t-36 -266.5zM397 1501q16 95 63.5 152t123.5 57q27 0 54 -9t41.5 -16.5t43.5 -25.5l55 -33q56 -31 86 -31q72 0 101 113l84 -18q-16 -95 -64 -153t-123 -58q-14 0 -28 2.5t-23.5 5t-25 10t-20.5 10t-22.5 12.5 t-19.5 11l-55 33q-55 32 -86 32q-75 0 -101 -112z" />
<glyph unicode="&#xd6;" horiz-adv-x="1447" d="M102 694q0 335 169.5 531t453.5 196q283 0 452 -196t169 -531q0 -333 -171 -530t-452 -197q-280 0 -450.5 197.5t-170.5 529.5zM258 694q0 -146 36.5 -261t100.5 -186t148 -108t182 -37q79 0 148 21.5t128 68.5t101 115.5t66 167t24 219.5q0 146 -36.5 261t-100.5 186 t-148 108t-182 37q-100 0 -183 -35t-147.5 -105t-100.5 -185.5t-36 -266.5zM465 1612q0 33 23 57.5t59 24.5q34 0 57 -24.5t23 -57.5q0 -37 -22.5 -61.5t-57.5 -24.5q-36 0 -59 24.5t-23 61.5zM819 1610q0 34 22.5 59t59.5 25q34 0 56 -24.5t22 -59.5q0 -33 -20.5 -58.5 t-57.5 -25.5q-36 0 -59 24t-23 60z" />
<glyph unicode="&#xd7;" horiz-adv-x="1077" d="M90 340l363 360l-363 363l88 92l361 -362l364 362l86 -92l-364 -361l362 -358l-86 -92l-362 360l-365 -362z" />
<glyph unicode="&#xd8;" horiz-adv-x="1447" d="M102 694q0 335 169.5 531t453.5 196q203 0 350 -104l78 115h143l-133 -195q183 -196 183 -543q0 -333 -171 -530t-452 -197q-202 0 -352 107l-76 -113h-141l129 191q-181 200 -181 542zM258 694q0 -260 111 -415l624 919q-117 88 -268 88q-100 0 -183 -35t-147.5 -105 t-100.5 -185.5t-36 -266.5zM453 193q113 -91 272 -91q79 0 148 21.5t128 68.5t101 115.5t66 167t24 219.5q0 263 -115 416z" />
<glyph unicode="&#xd9;" horiz-adv-x="1390" d="M172 512v877h147v-869q0 -111 30.5 -194t84.5 -130t119 -69.5t141 -22.5q77 0 142 22.5t119 69.5t85 130t31 194v869h148v-877q0 -258 -141.5 -401.5t-383.5 -143.5t-382 143.5t-140 401.5zM432 1806h152l168 -336h-111z" />
<glyph unicode="&#xda;" horiz-adv-x="1390" d="M172 512v877h147v-869q0 -111 30.5 -194t84.5 -130t119 -69.5t141 -22.5q77 0 142 22.5t119 69.5t85 130t31 194v869h148v-877q0 -258 -141.5 -401.5t-383.5 -143.5t-382 143.5t-140 401.5zM635 1470l168 336h151l-209 -336h-110z" />
<glyph unicode="&#xdb;" horiz-adv-x="1390" d="M172 512v877h147v-869q0 -111 30.5 -194t84.5 -130t119 -69.5t141 -22.5q77 0 142 22.5t119 69.5t85 130t31 194v869h148v-877q0 -258 -141.5 -401.5t-383.5 -143.5t-382 143.5t-140 401.5zM391 1470l230 336h145l225 -336h-117l-182 236l-184 -236h-117z" />
<glyph unicode="&#xdc;" horiz-adv-x="1390" d="M172 512v877h147v-869q0 -111 30.5 -194t84.5 -130t119 -69.5t141 -22.5q77 0 142 22.5t119 69.5t85 130t31 194v869h148v-877q0 -258 -141.5 -401.5t-383.5 -143.5t-382 143.5t-140 401.5zM434 1612q0 33 23 57.5t59 24.5q34 0 57 -24.5t23 -57.5q0 -37 -22.5 -61.5 t-57.5 -24.5q-36 0 -59 24.5t-23 61.5zM788 1610q0 34 22.5 59t59.5 25q34 0 56 -24.5t22 -59.5q0 -33 -20.5 -58.5t-57.5 -25.5q-36 0 -59 24t-23 60z" />
<glyph unicode="&#xdd;" horiz-adv-x="1247" d="M41 1389h174l420 -654l403 654h166l-493 -801v-588h-156v588zM578 1470l167 336h152l-209 -336h-110z" />
<glyph unicode="&#xde;" horiz-adv-x="1234" d="M182 0v1389h148v-215h358q60 0 117 -9.5t122 -38.5t113 -74.5t79.5 -125.5t31.5 -185q0 -208 -131 -329t-361 -121h-329v-291h-148zM330 424h329q74 0 133 17t97.5 46t63.5 70t35.5 85t10.5 95q0 40 -6.5 76t-27.5 79t-55 73.5t-96 51.5t-144 21h-340v-614z" />
<glyph unicode="&#xdf;" horiz-adv-x="1280" d="M168 0v1204q0 159 95.5 226t309.5 67q67 0 126.5 -7t120 -26.5t103.5 -49.5t70 -80.5t27 -116.5q0 -96 -53 -165t-205 -143q-50 -24 -76.5 -49t-26.5 -61q0 -50 39.5 -82t132.5 -64l111 -39q132 -47 202 -116.5t70 -192.5q0 -154 -108.5 -242t-263.5 -88 q-105 0 -184.5 30.5t-124.5 78t-70 111.5l119 45q38 -75 95.5 -113.5t164.5 -38.5q98 0 165.5 54.5t67.5 152.5q0 75 -53 121.5t-166 85.5l-47 16q-79 27 -125 47.5t-87.5 51.5t-59 72t-17.5 99q0 38 14 72t29.5 53.5t46 41t42 27.5t38.5 19q115 56 153 104t38 109 q0 83 -85.5 123.5t-222.5 40.5q-154 0 -211 -40.5t-57 -147.5v-1190h-137z" />
<glyph unicode="&#xe0;" horiz-adv-x="1105" d="M125 279q0 67 20 118.5t68 94.5t124.5 71t191.5 43t268 15v104q0 252 -246 252q-122 0 -188 -58t-74 -167l-127 22q4 85 40 149.5t92.5 101.5t121 55t135.5 18q100 0 175 -28t119.5 -78t66.5 -113.5t22 -139.5v-544q0 -99 76 -99q28 0 69 13l17 -113q-58 -21 -127 -21 q-72 0 -111 35.5t-51 108.5q-56 -64 -152 -104t-200 -40q-144 0 -237 76.5t-93 227.5zM266 287q0 -91 60 -141t163 -50q85 0 171 36.5t137 98.5v279q-137 0 -235.5 -12t-155 -31t-89 -49.5t-42 -60t-9.5 -70.5zM297 1540h152l167 -336h-110z" />
<glyph unicode="&#xe1;" horiz-adv-x="1105" d="M125 279q0 67 20 118.5t68 94.5t124.5 71t191.5 43t268 15v104q0 252 -246 252q-122 0 -188 -58t-74 -167l-127 22q4 85 40 149.5t92.5 101.5t121 55t135.5 18q100 0 175 -28t119.5 -78t66.5 -113.5t22 -139.5v-544q0 -99 76 -99q28 0 69 13l17 -113q-58 -21 -127 -21 q-72 0 -111 35.5t-51 108.5q-56 -64 -152 -104t-200 -40q-144 0 -237 76.5t-93 227.5zM266 287q0 -91 60 -141t163 -50q85 0 171 36.5t137 98.5v279q-137 0 -235.5 -12t-155 -31t-89 -49.5t-42 -60t-9.5 -70.5zM498 1204l168 336h151l-209 -336h-110z" />
<glyph unicode="&#xe2;" horiz-adv-x="1105" d="M125 279q0 67 20 118.5t68 94.5t124.5 71t191.5 43t268 15v104q0 252 -246 252q-122 0 -188 -58t-74 -167l-127 22q4 85 40 149.5t92.5 101.5t121 55t135.5 18q100 0 175 -28t119.5 -78t66.5 -113.5t22 -139.5v-544q0 -99 76 -99q28 0 69 13l17 -113q-58 -21 -127 -21 q-72 0 -111 35.5t-51 108.5q-56 -64 -152 -104t-200 -40q-144 0 -237 76.5t-93 227.5zM256 1204l229 336h146l225 -336h-117l-182 236l-184 -236h-117zM266 287q0 -91 60 -141t163 -50q85 0 171 36.5t137 98.5v279q-137 0 -235.5 -12t-155 -31t-89 -49.5t-42 -60t-9.5 -70.5 z" />
<glyph unicode="&#xe3;" horiz-adv-x="1105" d="M125 279q0 67 20 118.5t68 94.5t124.5 71t191.5 43t268 15v104q0 252 -246 252q-122 0 -188 -58t-74 -167l-127 22q4 85 40 149.5t92.5 101.5t121 55t135.5 18q100 0 175 -28t119.5 -78t66.5 -113.5t22 -139.5v-544q0 -99 76 -99q28 0 69 13l17 -113q-58 -21 -127 -21 q-72 0 -111 35.5t-51 108.5q-56 -64 -152 -104t-200 -40q-144 0 -237 76.5t-93 227.5zM231 1235q16 95 63.5 152t123.5 57q27 0 54 -9t41.5 -16.5t43.5 -25.5l55 -33q56 -31 86 -31q72 0 101 113l84 -19q-16 -95 -64 -153t-123 -58q-14 0 -28 2.5t-24 5.5t-24 9.5t-21 10.5 t-22 12.5t-20 11.5l-55 32q-57 33 -86 33q-75 0 -101 -112zM266 287q0 -91 60 -141t163 -50q85 0 171 36.5t137 98.5v279q-137 0 -235.5 -12t-155 -31t-89 -49.5t-42 -60t-9.5 -70.5z" />
<glyph unicode="&#xe4;" horiz-adv-x="1105" d="M125 279q0 67 20 118.5t68 94.5t124.5 71t191.5 43t268 15v104q0 252 -246 252q-122 0 -188 -58t-74 -167l-127 22q4 85 40 149.5t92.5 101.5t121 55t135.5 18q100 0 175 -28t119.5 -78t66.5 -113.5t22 -139.5v-544q0 -99 76 -99q28 0 69 13l17 -113q-58 -21 -127 -21 q-72 0 -111 35.5t-51 108.5q-56 -64 -152 -104t-200 -40q-144 0 -237 76.5t-93 227.5zM266 287q0 -91 60 -141t163 -50q85 0 171 36.5t137 98.5v279q-137 0 -235.5 -12t-155 -31t-89 -49.5t-42 -60t-9.5 -70.5zM299 1346q0 33 23 57t59 24q34 0 57 -24t23 -57 q0 -37 -22.5 -61.5t-57.5 -24.5q-36 0 -59 24.5t-23 61.5zM653 1343q0 34 22.5 59t59.5 25q34 0 56 -24.5t22 -59.5q0 -33 -20.5 -58t-57.5 -25q-36 0 -59 23.5t-23 59.5z" />
<glyph unicode="&#xe5;" horiz-adv-x="1105" d="M125 279q0 67 20 118.5t68 94.5t124.5 71t191.5 43t268 15v104q0 252 -246 252q-122 0 -188 -58t-74 -167l-127 22q4 85 40 149.5t92.5 101.5t121 55t135.5 18q100 0 175 -28t119.5 -78t66.5 -113.5t22 -139.5v-544q0 -99 76 -99q28 0 69 13l17 -113q-58 -21 -127 -21 q-72 0 -111 35.5t-51 108.5q-56 -64 -152 -104t-200 -40q-144 0 -237 76.5t-93 227.5zM266 287q0 -91 60 -141t163 -50q85 0 171 36.5t137 98.5v279q-137 0 -235.5 -12t-155 -31t-89 -49.5t-42 -60t-9.5 -70.5zM350 1376q0 83 57 137t150 54t150 -54t57 -137t-57.5 -137.5 t-149.5 -54.5t-149.5 54.5t-57.5 137.5zM457 1376q0 -46 27.5 -76t72.5 -30t71.5 29t28.5 77q0 47 -27 77t-73 30q-45 0 -71.5 -29.5t-28.5 -77.5z" />
<glyph unicode="&#xe6;" horiz-adv-x="1751" d="M117 279q0 67 20 118.5t67.5 94.5t124 71t191.5 43t268 15v108q0 123 -58 185.5t-185 62.5q-124 0 -190 -58t-74 -167l-127 22q4 84 39.5 148.5t91.5 101.5t121 55.5t135 18.5q281 0 346 -205q57 95 151.5 150t223.5 55q180 0 288.5 -84t108.5 -232q0 -90 -31 -152 t-90.5 -96t-133.5 -48.5t-173 -14.5q-189 0 -303 25q1 -199 99 -298.5t271 -99.5q86 0 171 22.5t149 55.5l20 -123q-150 -78 -350 -78q-289 0 -409 197q-187 -197 -428 -197q-70 0 -129.5 18t-105.5 54t-72.5 95.5t-26.5 136.5zM256 287q0 -91 61 -141t164 -50 q191 0 346 174q-39 95 -39 240q-137 0 -236 -12t-155.5 -31t-88.5 -49.5t-42 -60t-10 -70.5zM928 614q122 -26 301 -26q161 0 230 46t69 148q0 92 -68.5 146.5t-199.5 54.5q-151 0 -237 -97t-95 -272z" />
<glyph unicode="&#xe7;" horiz-adv-x="1085" d="M92 539q0 84 17 162t54.5 151t93 127t138.5 86.5t185 32.5q300 0 413 -273l-129 -39q-84 193 -284 193q-80 0 -142.5 -30t-99.5 -75.5t-61 -106.5t-32.5 -116.5t-8.5 -111.5q0 -57 8.5 -113t32 -117.5t60.5 -107.5t99.5 -76.5t143.5 -30.5q200 0 284 193l129 -39 q-113 -273 -413 -273q-102 0 -185 32.5t-138.5 87t-93 128t-54.5 152.5t-17 164zM371 -420l32 84q75 -35 146 -35q48 0 85.5 23t37.5 67q0 80 -107 80q-41 0 -76 -14l-28 80q53 26 119 26q82 0 137 -41.5t55 -128.5q0 -89 -65 -134.5t-152 -45.5q-101 0 -184 39z" />
<glyph unicode="&#xe8;" horiz-adv-x="1058" d="M92 541q0 89 17.5 170t55 152t92.5 123t134.5 82t175.5 30q181 0 289.5 -83.5t108.5 -232.5q0 -90 -31 -152t-90.5 -96t-133.5 -48.5t-173 -14.5q-190 0 -304 25q7 -196 104 -297t267 -101t322 78l18 -123q-150 -78 -350 -78q-242 0 -372 149t-130 417zM233 614 q122 -26 302 -26q161 0 230 46t69 148q0 92 -69 146.5t-200 54.5q-151 0 -237 -97t-95 -272zM303 1540h152l168 -336h-111z" />
<glyph unicode="&#xe9;" horiz-adv-x="1058" d="M92 541q0 89 17.5 170t55 152t92.5 123t134.5 82t175.5 30q181 0 289.5 -83.5t108.5 -232.5q0 -90 -31 -152t-90.5 -96t-133.5 -48.5t-173 -14.5q-190 0 -304 25q7 -196 104 -297t267 -101t322 78l18 -123q-150 -78 -350 -78q-242 0 -372 149t-130 417zM233 614 q122 -26 302 -26q161 0 230 46t69 148q0 92 -69 146.5t-200 54.5q-151 0 -237 -97t-95 -272zM504 1204l168 336h151l-209 -336h-110z" />
<glyph unicode="&#xea;" horiz-adv-x="1058" d="M92 541q0 89 17.5 170t55 152t92.5 123t134.5 82t175.5 30q181 0 289.5 -83.5t108.5 -232.5q0 -90 -31 -152t-90.5 -96t-133.5 -48.5t-173 -14.5q-190 0 -304 25q7 -196 104 -297t267 -101t322 78l18 -123q-150 -78 -350 -78q-242 0 -372 149t-130 417zM233 614 q122 -26 302 -26q161 0 230 46t69 148q0 92 -69 146.5t-200 54.5q-151 0 -237 -97t-95 -272zM262 1204l230 336h145l225 -336h-117l-182 236l-184 -236h-117z" />
<glyph unicode="&#xeb;" horiz-adv-x="1058" d="M92 541q0 89 17.5 170t55 152t92.5 123t134.5 82t175.5 30q181 0 289.5 -83.5t108.5 -232.5q0 -90 -31 -152t-90.5 -96t-133.5 -48.5t-173 -14.5q-190 0 -304 25q7 -196 104 -297t267 -101t322 78l18 -123q-150 -78 -350 -78q-242 0 -372 149t-130 417zM233 614 q122 -26 302 -26q161 0 230 46t69 148q0 92 -69 146.5t-200 54.5q-151 0 -237 -97t-95 -272zM305 1346q0 33 23 57t59 24q34 0 57 -24t23 -57q0 -37 -22.5 -61.5t-57.5 -24.5q-36 0 -59 24.5t-23 61.5zM659 1343q0 34 22.5 59t59.5 25q34 0 56 -24.5t22 -59.5 q0 -33 -20.5 -58t-57.5 -25q-36 0 -59 23.5t-23 59.5z" />
<glyph unicode="&#xec;" horiz-adv-x="475" d="M-23 1540h152l168 -336h-111zM168 0v1073h137v-1073h-137z" />
<glyph unicode="&#xed;" horiz-adv-x="475" d="M168 0v1073h137v-1073h-137zM180 1204l168 336h152l-209 -336h-111z" />
<glyph unicode="&#xee;" horiz-adv-x="475" d="M-63 1204l229 336h145l226 -336h-117l-182 236l-185 -236h-116zM168 0v1073h137v-1073h-137z" />
<glyph unicode="&#xef;" horiz-adv-x="475" d="M-18 1346q0 33 22.5 57t58.5 24q34 0 57 -24t23 -57q0 -37 -22.5 -61.5t-57.5 -24.5q-36 0 -58.5 24.5t-22.5 61.5zM168 0v1073h137v-1073h-137zM336 1343q0 34 22.5 59t59.5 25q34 0 56 -24.5t22 -59.5q0 -33 -20.5 -58t-57.5 -25q-36 0 -59 23.5t-23 59.5z" />
<glyph unicode="&#xf0;" horiz-adv-x="1140" d="M94 489q0 110 27 208.5t81 181t147 131.5t214 49t221 -53q-66 106 -170 196l-327 -69v106l217 47q-119 78 -256 133l100 78q181 -69 320 -176l268 57v-108l-168 -37q131 -127 205 -288.5t74 -348.5q0 -102 -17.5 -192t-56 -169.5t-95.5 -136.5t-141 -90t-188 -33 q-91 0 -166.5 28t-128 76.5t-89.5 114t-54 140t-17 155.5zM236 479q0 -52 10 -103t34 -102.5t59 -90t90.5 -63t123.5 -24.5q94 0 164.5 39t111.5 106.5t60.5 150t19.5 177.5q0 150 -47 277q-124 94 -280 94q-80 0 -142.5 -29.5t-100 -75.5t-61.5 -109t-33 -123t-9 -124z" />
<glyph unicode="&#xf1;" horiz-adv-x="1179" d="M168 0v1073h137v-145q41 70 128 120t212 50q98 0 172.5 -29.5t120 -82.5t68 -121.5t22.5 -151.5v-713h-137v705q0 125 -71 194.5t-208 69.5q-113 0 -194 -58t-113 -127v-784h-137zM264 1235q16 95 63.5 152t123.5 57q27 0 54 -9t41.5 -16.5t43.5 -25.5l55 -33 q56 -31 86 -31q71 0 100 113l84 -19q-16 -95 -63.5 -153t-122.5 -58q-14 0 -28 2.5t-24 5.5t-24 9.5t-21 10.5t-22 12.5t-20 11.5l-55 32q-57 33 -86 33q-75 0 -101 -112z" />
<glyph unicode="&#xf2;" horiz-adv-x="1165" d="M92 539q0 84 17 162t55 151t94 127t140 86.5t186 32.5t185 -32.5t138.5 -86.5t93.5 -127t55 -151t17 -162q0 -107 -28 -204.5t-84.5 -179.5t-153.5 -131t-223 -49q-127 0 -224.5 49t-154 131t-85 179.5t-28.5 204.5zM236 539q0 -46 6.5 -93t21 -98.5t41.5 -95.5 t63.5 -80.5t92 -57t123.5 -20.5q67 0 122 20.5t92 57t63.5 80.5t41 95.5t21 98.5t6.5 93q0 56 -9 111.5t-33 116.5t-61 106.5t-100 75.5t-143 30q-81 0 -144 -30t-100.5 -75.5t-61.5 -106.5t-33 -116.5t-9 -111.5zM324 1540h151l168 -336h-111z" />
<glyph unicode="&#xf3;" horiz-adv-x="1165" d="M92 539q0 84 17 162t55 151t94 127t140 86.5t186 32.5t185 -32.5t138.5 -86.5t93.5 -127t55 -151t17 -162q0 -107 -28 -204.5t-84.5 -179.5t-153.5 -131t-223 -49q-127 0 -224.5 49t-154 131t-85 179.5t-28.5 204.5zM236 539q0 -46 6.5 -93t21 -98.5t41.5 -95.5 t63.5 -80.5t92 -57t123.5 -20.5q67 0 122 20.5t92 57t63.5 80.5t41 95.5t21 98.5t6.5 93q0 56 -9 111.5t-33 116.5t-61 106.5t-100 75.5t-143 30q-81 0 -144 -30t-100.5 -75.5t-61.5 -106.5t-33 -116.5t-9 -111.5zM524 1204l168 336h152l-209 -336h-111z" />
<glyph unicode="&#xf4;" horiz-adv-x="1165" d="M92 539q0 84 17 162t55 151t94 127t140 86.5t186 32.5t185 -32.5t138.5 -86.5t93.5 -127t55 -151t17 -162q0 -107 -28 -204.5t-84.5 -179.5t-153.5 -131t-223 -49q-127 0 -224.5 49t-154 131t-85 179.5t-28.5 204.5zM236 539q0 -46 6.5 -93t21 -98.5t41.5 -95.5 t63.5 -80.5t92 -57t123.5 -20.5q67 0 122 20.5t92 57t63.5 80.5t41 95.5t21 98.5t6.5 93q0 56 -9 111.5t-33 116.5t-61 106.5t-100 75.5t-143 30q-81 0 -144 -30t-100.5 -75.5t-61.5 -106.5t-33 -116.5t-9 -111.5zM281 1204l229 336h145l226 -336h-117l-182 236l-185 -236 h-116z" />
<glyph unicode="&#xf5;" horiz-adv-x="1165" d="M92 539q0 84 17 162t55 151t94 127t140 86.5t186 32.5t185 -32.5t138.5 -86.5t93.5 -127t55 -151t17 -162q0 -107 -28 -204.5t-84.5 -179.5t-153.5 -131t-223 -49q-127 0 -224.5 49t-154 131t-85 179.5t-28.5 204.5zM236 539q0 -46 6.5 -93t21 -98.5t41.5 -95.5 t63.5 -80.5t92 -57t123.5 -20.5q67 0 122 20.5t92 57t63.5 80.5t41 95.5t21 98.5t6.5 93q0 56 -9 111.5t-33 116.5t-61 106.5t-100 75.5t-143 30q-81 0 -144 -30t-100.5 -75.5t-61.5 -106.5t-33 -116.5t-9 -111.5zM256 1235q16 96 63 152.5t123 56.5q27 0 54 -8.5t42.5 -17 t43.5 -25.5l55 -33q56 -31 86 -31q71 0 100 113l84 -19q-16 -95 -63.5 -153t-122.5 -58q-14 0 -28 2.5t-24 5.5t-24 9.5t-21 10.5t-22 12.5t-20 11.5l-56 32q-57 33 -86 33q-74 0 -100 -112z" />
<glyph unicode="&#xf6;" horiz-adv-x="1165" d="M92 539q0 84 17 162t55 151t94 127t140 86.5t186 32.5t185 -32.5t138.5 -86.5t93.5 -127t55 -151t17 -162q0 -107 -28 -204.5t-84.5 -179.5t-153.5 -131t-223 -49q-127 0 -224.5 49t-154 131t-85 179.5t-28.5 204.5zM236 539q0 -46 6.5 -93t21 -98.5t41.5 -95.5 t63.5 -80.5t92 -57t123.5 -20.5q67 0 122 20.5t92 57t63.5 80.5t41 95.5t21 98.5t6.5 93q0 56 -9 111.5t-33 116.5t-61 106.5t-100 75.5t-143 30q-81 0 -144 -30t-100.5 -75.5t-61.5 -106.5t-33 -116.5t-9 -111.5zM324 1346q0 33 23 57t59 24q34 0 56.5 -24t22.5 -57 q0 -37 -22 -61.5t-57 -24.5q-36 0 -59 24.5t-23 61.5zM678 1343q0 34 22.5 59t59.5 25q34 0 56 -24.5t22 -59.5q0 -33 -20.5 -58t-57.5 -25q-36 0 -59 23.5t-23 59.5z" />
<glyph unicode="&#xf7;" horiz-adv-x="1077" d="M59 639v127h961v-127h-961zM446 313q0 39 26 66t69 27q41 0 65.5 -25.5t24.5 -67.5q0 -41 -25 -66.5t-65 -25.5q-43 0 -69 25.5t-26 66.5zM446 1094q0 39 26 65.5t69 26.5q41 0 65.5 -25.5t24.5 -66.5t-25 -67t-65 -26q-43 0 -69 26t-26 67z" />
<glyph unicode="&#xf8;" horiz-adv-x="1165" d="M92 539q0 84 17 162t55 151t94 127t140 86.5t186 32.5q153 0 266 -76l57 82h133l-106 -154q69 -79 104 -187t35 -224q0 -107 -28 -204.5t-84.5 -179.5t-153.5 -131t-223 -49q-161 0 -273 76l-61 -90h-133l112 162q-137 158 -137 416zM236 539q0 -178 73 -297l469 676 q-81 61 -194 61q-81 0 -144 -30t-100.5 -75.5t-61.5 -106.5t-33 -116.5t-9 -111.5zM385 158q84 -64 199 -64q67 0 122 20.5t92 57t63.5 80.5t41 95.5t21 98.5t6.5 93q0 175 -76 295z" />
<glyph unicode="&#xf9;" horiz-adv-x="1157" d="M152 356v717h137v-706q0 -57 12 -102t40 -82.5t80.5 -58t127.5 -20.5q111 0 192.5 56t110.5 125v788h137v-1073h-131v147q-43 -72 -131 -122t-217 -50q-92 0 -162 28.5t-112 80.5t-63 120.5t-21 151.5zM324 1540h151l168 -336h-111z" />
<glyph unicode="&#xfa;" horiz-adv-x="1157" d="M152 356v717h137v-706q0 -57 12 -102t40 -82.5t80.5 -58t127.5 -20.5q111 0 192.5 56t110.5 125v788h137v-1073h-131v147q-43 -72 -131 -122t-217 -50q-92 0 -162 28.5t-112 80.5t-63 120.5t-21 151.5zM524 1204l168 336h152l-209 -336h-111z" />
<glyph unicode="&#xfb;" horiz-adv-x="1157" d="M152 356v717h137v-706q0 -57 12 -102t40 -82.5t80.5 -58t127.5 -20.5q111 0 192.5 56t110.5 125v788h137v-1073h-131v147q-43 -72 -131 -122t-217 -50q-92 0 -162 28.5t-112 80.5t-63 120.5t-21 151.5zM281 1204l229 336h145l226 -336h-117l-182 236l-185 -236h-116z" />
<glyph unicode="&#xfc;" horiz-adv-x="1157" d="M152 356v717h137v-706q0 -57 12 -102t40 -82.5t80.5 -58t127.5 -20.5q111 0 192.5 56t110.5 125v788h137v-1073h-131v147q-43 -72 -131 -122t-217 -50q-92 0 -162 28.5t-112 80.5t-63 120.5t-21 151.5zM324 1346q0 33 23 57t59 24q34 0 56.5 -24t22.5 -57 q0 -37 -22 -61.5t-57 -24.5q-36 0 -59 24.5t-23 61.5zM678 1343q0 34 22.5 59t59.5 25q34 0 56 -24.5t22 -59.5q0 -33 -20.5 -58t-57.5 -25q-36 0 -59 23.5t-23 59.5z" />
<glyph unicode="&#xfd;" horiz-adv-x="1064" d="M51 1073h150l356 -919l328 919h139l-430 -1184q-58 -156 -144 -226.5t-225 -70.5q-82 0 -155 31l18 115q61 -23 119 -23q110 0 169.5 63t106.5 206zM496 1204l168 336h151l-209 -336h-110z" />
<glyph unicode="&#xfe;" horiz-adv-x="1165" d="M170 -393v1890h135v-430q121 31 238 31q141 0 245 -40t165 -113.5t89.5 -168.5t28.5 -213q0 -131 -28.5 -233.5t-77 -168.5t-117.5 -108.5t-144.5 -60t-164.5 -17.5q-64 0 -129.5 12.5t-104.5 32.5v-413h-135zM305 137q94 -39 219 -39q410 0 410 459q0 89 -21 162.5 t-64.5 132t-117.5 91t-174 32.5q-152 0 -252 -31v-807z" />
<glyph unicode="&#xff;" horiz-adv-x="1064" d="M51 1073h150l356 -919l328 919h139l-430 -1184q-58 -156 -144 -226.5t-225 -70.5q-82 0 -155 31l18 115q61 -23 119 -23q110 0 169.5 63t106.5 206zM295 1346q0 33 23 57t59 24q34 0 57 -24t23 -57q0 -37 -22.5 -61.5t-57.5 -24.5q-36 0 -59 24.5t-23 61.5zM649 1343 q0 34 22.5 59t59.5 25q34 0 56 -24.5t22 -59.5q0 -33 -20.5 -58t-57.5 -25q-36 0 -59 23.5t-23 59.5z" />
<glyph unicode="&#x152;" horiz-adv-x="1984" d="M102 662q0 152 36.5 275.5t99.5 206.5t151 139t187 81t210 25h1080v-136h-684v-473h604v-133h-604v-512h704v-135h-1044q-740 0 -740 662zM254 662q0 -83 14.5 -152.5t37.5 -120t59.5 -91t72.5 -66.5t85.5 -44.5t89 -28t92.5 -15t86 -6.5t79 -1h164v1114h-225 q-86 0 -162.5 -17.5t-150 -60.5t-126 -108.5t-84.5 -168.5t-32 -234z" />
<glyph unicode="&#x153;" horiz-adv-x="1896" d="M92 539q0 83 17 161.5t55 151.5t94 127t139 86.5t185 32.5q309 0 417 -283q47 131 147.5 207t258.5 76q181 0 289 -83.5t108 -232.5q0 -90 -31 -152t-90.5 -96t-133.5 -48.5t-173 -14.5q-189 0 -303 25q7 -196 104 -297t267 -101q169 0 321 78l19 -123q-150 -78 -350 -78 q-165 0 -275.5 72.5t-157.5 210.5q-50 -129 -152.5 -206t-264.5 -77q-102 0 -185 32.5t-139 87t-94 128t-55 152.5t-17 164zM233 539q0 -56 9 -112.5t34 -118t62.5 -108t100.5 -76.5t143 -30q68 0 123.5 20.5t92 57t63.5 80.5t41.5 95.5t21 98.5t6.5 93q0 56 -9 111.5 t-33.5 116.5t-62 106.5t-100.5 75.5t-143 30t-143 -30t-100.5 -75.5t-62.5 -106.5t-34 -116.5t-9 -111.5zM1071 614q122 -26 301 -26q161 0 230 46t69 148q0 92 -68.5 146.5t-199.5 54.5q-151 0 -237 -97t-95 -272z" />
<glyph unicode="&#x178;" horiz-adv-x="1247" d="M41 1389h174l420 -654l403 654h166l-493 -801v-588h-156v588zM377 1612q0 33 23 57.5t59 24.5q34 0 57 -24.5t23 -57.5q0 -37 -22.5 -61.5t-57.5 -24.5q-36 0 -59 24.5t-23 61.5zM731 1610q0 34 22.5 59t59.5 25q34 0 56 -24.5t22 -59.5q0 -33 -20.5 -58.5t-57.5 -25.5 q-36 0 -59 24t-23 60z" />
<glyph unicode="&#x2c6;" horiz-adv-x="1024" d="M211 1204l229 336h146l225 -336h-117l-182 236l-184 -236h-117z" />
<glyph unicode="&#x2dc;" horiz-adv-x="1024" d="M186 1235q16 95 63.5 152t123.5 57q27 0 54 -9t41.5 -16.5t43.5 -25.5l55 -33q56 -31 86 -31q72 0 101 113l84 -19q-16 -95 -64 -153t-123 -58q-14 0 -28 2.5t-24 5.5t-24 9.5t-21 10.5t-22 12.5t-20 11.5l-55 32q-57 33 -86 33q-75 0 -101 -112z" />
<glyph unicode="&#x2000;" horiz-adv-x="916" />
<glyph unicode="&#x2001;" horiz-adv-x="1833" />
<glyph unicode="&#x2002;" horiz-adv-x="916" />
<glyph unicode="&#x2003;" horiz-adv-x="1833" />
<glyph unicode="&#x2004;" horiz-adv-x="611" />
<glyph unicode="&#x2005;" horiz-adv-x="458" />
<glyph unicode="&#x2006;" horiz-adv-x="305" />
<glyph unicode="&#x2007;" horiz-adv-x="305" />
<glyph unicode="&#x2008;" horiz-adv-x="229" />
<glyph unicode="&#x2009;" horiz-adv-x="366" />
<glyph unicode="&#x200a;" horiz-adv-x="101" />
<glyph unicode="&#x2010;" horiz-adv-x="598" d="M70 494v143h456v-143h-456z" />
<glyph unicode="&#x2011;" horiz-adv-x="598" d="M70 494v143h456v-143h-456z" />
<glyph unicode="&#x2012;" horiz-adv-x="598" d="M70 494v143h456v-143h-456z" />
<glyph unicode="&#x2013;" d="M70 489v121h1056v-121h-1056z" />
<glyph unicode="&#x2014;" horiz-adv-x="2394" d="M61 489v121h2272v-121h-2272z" />
<glyph unicode="&#x2018;" horiz-adv-x="471" d="M113 981l159 475h111l-111 -475h-159z" />
<glyph unicode="&#x2019;" horiz-adv-x="471" d="M106 975l111 477h158l-160 -477h-109z" />
<glyph unicode="&#x201a;" horiz-adv-x="477" d="M98 -262l111 477h160l-160 -477h-111z" />
<glyph unicode="&#x201c;" horiz-adv-x="790" d="M106 981l160 475h109l-111 -475h-158zM434 981l160 475h111l-111 -475h-160z" />
<glyph unicode="&#x201d;" horiz-adv-x="790" d="M106 975l111 477h158l-160 -477h-109zM434 975l111 477h160l-160 -477h-111z" />
<glyph unicode="&#x201e;" horiz-adv-x="806" d="M98 -262l111 477h160l-160 -477h-111zM426 -262l111 477h159l-159 -477h-111z" />
<glyph unicode="&#x2022;" horiz-adv-x="686" d="M129 555q0 91 62 154t151 63t152 -63t63 -154q0 -89 -63 -153t-152 -64q-88 0 -150.5 63.5t-62.5 153.5z" />
<glyph unicode="&#x2026;" horiz-adv-x="2396" d="M193 96q0 43 29 74t77 31t77.5 -31t29.5 -74q0 -44 -29 -75t-78 -31q-48 0 -77 31.5t-29 74.5zM948 96q0 43 29.5 74t77.5 31t77 -31t29 -74q0 -44 -28.5 -75t-77.5 -31q-48 0 -77.5 31.5t-29.5 74.5zM1698 96q0 43 29 74t77 31t77.5 -31t29.5 -74q0 -44 -29 -75t-78 -31 t-77.5 31t-28.5 75z" />
<glyph unicode="&#x202f;" horiz-adv-x="366" />
<glyph unicode="&#x2039;" horiz-adv-x="593" d="M104 553l209 342h142l-209 -342l209 -338h-142z" />
<glyph unicode="&#x203a;" horiz-adv-x="593" d="M139 215l207 338l-207 342h140l210 -342l-210 -338h-140z" />
<glyph unicode="&#x205f;" horiz-adv-x="458" />
<glyph unicode="&#x20ac;" d="M41 483v111h231q-2 37 -2 113q0 59 2 90h-231v108h242q12 89 35.5 164.5t64.5 145t96 118t135 77t177 28.5q186 0 288 -78l-22 -127q-57 39 -125 57.5t-127 18.5q-88 0 -156 -32.5t-111 -90.5t-69 -127t-39 -154h520v-108h-530q-2 -31 -2 -90q0 -76 4 -113h528v-111h-516 q67 -379 371 -379q143 0 252 76l22 -127q-102 -78 -288 -78q-95 0 -172.5 26t-132.5 71.5t-96 111t-65.5 138.5t-37.5 161h-246z" />
<glyph unicode="&#x2122;" horiz-adv-x="1804" d="M53 1282v107h654v-107h-267v-743h-123v743h-264zM844 539v850h133l289 -428l288 428h138v-850h-121v673l-273 -407h-63l-274 405v-671h-117z" />
<glyph unicode="&#xe000;" horiz-adv-x="1075" d="M0 0v1075h1075v-1075h-1075z" />
</font>
</defs>
</svg>
